<svg width="95" height="208" viewBox="0 0 95 208" fill="none"
    xmlns="http://www.w3.org/2000/svg">
    <defs>
        <linearGradient id="rainbow" x1="0" x2="100%" y1="0" y2="70%" gradientUnits="userSpaceOnUse" gradientTransform="rotate(10)">
            <stop stop-color="#5ffaba" offset="0%"/>
            <stop stop-color="#0a608c" offset="100%"/>
        </linearGradient>
    </defs>
    <path fill="url(#rainbow)" fill-rule="evenodd" clip-rule="evenodd" d="M2.10938 207.562H28.125V165.14C28.714 166.296 29.5343 167.343 30.5859 168.281C33 170.391 36.082 171.445 39.832 171.445C44.0273 171.445 47.6367 169.875 50.6602 166.734C50.8945 168.656 51.1992 169.992 51.5742 170.742H57.4403C57.5269 170.933 57.6158 171.121 57.707 171.309C59.4883 174.918 61.9961 177.707 65.2305 179.676C68.4648 181.621 72.168 182.594 76.3398 182.594C80.4648 182.594 84.0742 181.984 87.168 180.766C90.2852 179.523 92.7109 177.66 94.4453 175.176V156.402H75.8828V161.887H87.7305V173.383C86.4883 174.719 84.918 175.668 83.0195 176.23C81.1211 176.793 78.9062 177.074 76.375 177.074C71.8984 177.074 68.3477 175.387 65.7227 172.012C63.0977 168.613 61.7852 164.043 61.7852 158.301V154.117C61.8086 148.094 62.9805 143.5 65.3008 140.336C67.6445 137.148 71.0781 135.555 75.6016 135.555C82.3984 135.555 86.4297 138.941 87.6953 145.715H94.4453C93.7188 140.699 91.7266 136.832 88.4688 134.113C85.2109 131.371 80.9102 130 75.5664 130C74.9289 130 74.3053 130.02 73.6956 130.061C74.9717 129.387 76.1774 128.625 77.3125 127.773C82.75 123.648 85.4688 118.188 85.4688 111.391C85.4688 107.312 84.4844 103.867 82.5156 101.055C80.5938 98.1953 77.6172 95.7578 73.5859 93.7422C69.5547 91.7266 64.2812 89.9922 57.7656 88.5391C51.2969 87.0859 46.8203 85.5625 44.3359 83.9688C41.8516 82.375 40.6094 80.0078 40.6094 76.8672C40.6094 73.5391 41.9453 70.8438 44.6172 68.7812C47.2891 66.7188 50.9922 65.6875 55.7266 65.6875C60.3203 65.6875 64.1172 66.9766 67.1172 69.5547C70.1641 72.1328 71.6875 75.2031 71.6875 78.7656H84.7656C84.7656 71.8281 82.0703 66.1328 76.6797 61.6797C71.3359 57.2266 64.3516 55 55.7266 55C47.5234 55 40.7734 57.1562 35.4766 61.4688C31.5801 64.6694 29.1296 68.3994 28.125 72.6587V55.4062H2.10938V207.562ZM63.7466 133.303C61.3693 133.695 58.8366 133.891 56.1484 133.891C54.2292 133.891 52.3798 133.784 50.6001 133.57C51.5555 134.042 52.4193 134.62 53.1914 135.305C55.2385 137.101 56.474 139.462 56.898 142.388C57.7628 140.094 58.9231 138.086 60.3789 136.363C61.3879 135.177 62.5105 134.157 63.7466 133.303ZM31.5 150.984C30 152.074 28.875 153.387 28.125 154.922V143.25H34.3125C34.3125 141.586 35.0977 140.168 36.668 138.996C38.2383 137.824 40.1836 137.238 42.5039 137.238C45.1523 137.238 47.1562 137.918 48.5156 139.277C49.875 140.613 50.5547 142.418 50.5547 144.691V147.68H44.2266C38.7656 147.68 34.5234 148.781 31.5 150.984ZM29.7773 137.766C29.001 138.787 28.4502 139.832 28.125 140.902V120.372C28.3802 120.803 28.651 121.232 28.9375 121.656C31.6094 125.5 35.2891 128.5 39.9766 130.656C41.0854 131.166 42.2336 131.616 43.4212 132.005C43.2459 132.002 43.069 132 42.8906 132C40.125 132 37.582 132.516 35.2617 133.547C32.9648 134.578 31.1367 135.984 29.7773 137.766ZM28.125 81.9089V109.07H38.0078C38.2422 113.43 39.9766 116.898 43.2109 119.477C46.4922 122.008 50.8047 123.273 56.1484 123.273C61.0703 123.273 65.0078 122.289 67.9609 120.32C70.9609 118.305 72.4609 115.633 72.4609 112.305C72.4609 108.789 71.125 106.07 68.4531 104.148C65.8281 102.18 61.2109 100.492 54.6016 99.0859C48.0391 97.6797 42.8125 95.9922 38.9219 94.0234C35.0781 92.0547 32.2188 89.7109 30.3438 86.9922C29.3143 85.4613 28.5748 83.7668 28.125 81.9089ZM3.79688 4.35938C1.26562 7.26562 0 10.8281 0 15.0469C0 19.2656 1.26562 22.7812 3.79688 25.5938C6.42188 28.4062 10.2656 29.8125 15.3281 29.8125C20.3906 29.8125 24.2344 28.4062 26.8594 25.5938C29.4844 22.7812 30.7969 19.2656 30.7969 15.0469C30.7969 10.8281 29.4844 7.26562 26.8594 4.35938C24.2344 1.45312 20.3906 0 15.3281 0C10.2656 0 6.42188 1.45312 3.79688 4.35938ZM40.7812 165.785C42.8203 165.785 44.7539 165.258 46.582 164.203C48.4102 163.148 49.7344 161.777 50.5547 160.09V152.285H45.457C37.4883 152.285 33.5039 154.617 33.5039 159.281C33.5039 161.32 34.1836 162.914 35.543 164.062C36.9023 165.211 38.6484 165.785 40.7812 165.785Z" />
</svg>
